<?xml version="1.0" encoding="utf-8"?>
<!-- Generator: Adobe Illustrator 27.5.0, SVG Export Plug-In . SVG Version: 6.00 Build 0)  -->
<svg version="1.1" xmlns="http://www.w3.org/2000/svg" xmlns:xlink="http://www.w3.org/1999/xlink" x="0px" y="0px"
	viewBox="0 0 750 500" style="enable-background:new 0 0 750 500;" xml:space="preserve">
	<g id="BACKGROUND">
		<rect id="XMLID_1309_" style="fill:#FFFFFF;" width="750" height="500" />
		<path id="XMLID_931_" style="fill:#ECE8FF;" d="M640.92,500.04H0V228.61c33.35-20.36,92.86-38.97,161.26,20.09
		c105.42,91.01,211.76,19.78,236.65,145.75C421.81,515.43,585.27,377.93,640.92,500.04z" />
		<path id="XMLID_1774_" style="fill:#ECE8FF;" d="M750,0v154.054c-121.73-10.354-102.458-82.029-144.417-90.935
		C491.397,38.881,338.238,124.287,318.823,0H750z" />
	</g>
	<g id="OBJECTS">
		<path id="XMLID_224_" style="fill:#F2F2F2;" d="M411.308,243.693l41.243,34.681l43.15-32.371l-43.153,34.195
		C452.547,280.198,412.548,245.947,411.308,243.693z" />

		<linearGradient id="XMLID_00000027568032675656904860000003332345542670524077_" gradientUnits="userSpaceOnUse"
			x1="173.6174" y1="354.1465" x2="262.9069" y2="354.1465">
			<stop offset="0.2672" style="stop-color:#142564" />
			<stop offset="0.9876" style="stop-color:#482D91" />
		</linearGradient>
		<path id="XMLID_223_" style="fill:url(#XMLID_00000027568032675656904860000003332345542670524077_);" d="M262.907,377.758
		c0,0-10.8-31.68-36.72-42.48s-51.467-2.16-52.554,15.84C172.547,369.118,227.987,345.718,262.907,377.758z" />

		<linearGradient id="XMLID_00000137822653692969069400000017714467107602828207_" gradientUnits="userSpaceOnUse"
			x1="587.1661" y1="13.1051" x2="211.3257" y2="466.7051">
			<stop offset="0.2672" style="stop-color:#142564" />
			<stop offset="0.9876" style="stop-color:#482D91" />
		</linearGradient>
		<path id="XMLID_222_" style="fill:url(#XMLID_00000137822653692969069400000017714467107602828207_);" d="M517.014,102.703
		c-23.482,5.561-42.949,23.142-66.342,29.088c-39.082,9.933-77.593-14.063-114.969-29.49
		c-36.313-14.988-76.457-22.295-114.841-14.589s-74.645,31.805-92.344,67.835c-10.695,21.773-14.261,46.644-14.274,71.062
		c-0.011,19.79,2.344,40.043,10.93,57.734c8.586,17.69,24.223,32.54,43.083,35.979c15.224,2.777,30.804-1.923,46.246-1.18
		c21.348,1.027,41.924,13.17,53.628,31.648c8.216,12.972,12.034,28.326,18.391,42.368c10.6,23.415,28.909,43.433,51.884,53.661
		c22.975,10.228,50.556,9.978,72.414-2.595c38.355-22.062,45.653-65.962,87.572-79.427c26.044-8.366,67.426,5.611,94.386,9.877
		c76.546,12.113,83.695-85.71,71.043-146.149C649.766,161.398,589.238,85.651,517.014,102.703z" />

		<linearGradient id="XMLID_00000112614464732035807590000009462401938868907415_" gradientUnits="userSpaceOnUse"
			x1="114.2434" y1="290.8698" x2="627.6641" y2="290.8698">
			<stop offset="0.2672" style="stop-color:#142564" />
			<stop offset="0.3742" style="stop-color:#482D91" />
		</linearGradient>
		<path id="XMLID_221_" style="fill:url(#XMLID_00000112614464732035807590000009462401938868907415_);" d="M179.445,223.945
		c-22.424-29.219-30.161-64.718-31.531-96.311c-7.729,8.257-14.327,17.593-19.396,27.914
		c-10.696,21.773-14.261,46.644-14.274,71.062c-0.011,19.79,2.344,40.043,10.93,57.734c8.586,17.69,24.223,32.54,43.083,35.98
		c15.224,2.777,30.804-1.923,46.246-1.18c21.348,1.028,41.924,13.17,53.628,31.648c8.216,12.972,12.034,28.326,18.391,42.368
		c10.6,23.415,28.909,43.433,51.884,53.661c22.975,10.228,50.556,9.978,72.414-2.595c38.355-22.062,45.653-65.962,87.571-79.427
		c26.044-8.366,67.427,5.611,94.386,9.877c10.933,1.73,20.444,1.21,28.69-1.116c9.523-27.302,9.976-59.225-12.333-91.974
		C548.28,192.25,233.667,294.598,179.445,223.945z" />
		<path id="XMLID_220_" style="fill:#FFFFFF;" d="M612.225,350.937c-0.746,4.202-3.092,4.737-3.092,4.737
		c1.973,0.495,3.092,4.777,3.092,4.777s1.119-4.281,3.092-4.777C615.317,355.674,612.971,355.139,612.225,350.937z" />
		<g id="XMLID_206_">
			<path id="XMLID_219_" style="fill:#00BCA2;" d="M158.031,159.317l-36.661,19.927c-3.08,1.674-6.934,0.534-8.608-2.546
			l-17.764-32.682c-1.674-3.08-0.534-6.934,2.546-8.608l36.661-19.927c3.08-1.674,6.934-0.534,8.608,2.545l17.764,32.682
			C162.25,153.789,161.111,157.643,158.031,159.317z" />

			<rect id="XMLID_218_" x="103.375" y="120.167"
				transform="matrix(0.8786 -0.4776 0.4776 0.8786 -46.3194 65.1697)" style="fill:#367689;" width="3.295"
				height="7.048" />

			<linearGradient id="XMLID_00000137823305919584104310000018150880871455997115_"
				gradientUnits="userSpaceOnUse" x1="101.0273" y1="126.67" x2="112.0491" y2="126.67">
				<stop offset="0" style="stop-color:#2BF3B7" />
				<stop offset="0.5" style="stop-color:#00EEAE" />
				<stop offset="1" style="stop-color:#00DAAA" />
			</linearGradient>
			<polygon id="XMLID_217_" style="fill:url(#XMLID_00000137823305919584104310000018150880871455997115_);"
				points="
			112.049,124.925 102.076,130.345 101.027,128.415 111,122.995 		" />

			<linearGradient id="XMLID_00000129202287672359006790000007733799337992703639_"
				gradientUnits="userSpaceOnUse" x1="107.9427" y1="126.3838" x2="136.7426" y2="187.5837">
				<stop offset="0" style="stop-color:#2BF3B7" />
				<stop offset="0.5" style="stop-color:#00EEAE" />
				<stop offset="1" style="stop-color:#00DAAA" />
			</linearGradient>
			<path id="XMLID_216_" style="fill:url(#XMLID_00000129202287672359006790000007733799337992703639_);" d="M150.09,163.633
			l-36.661,19.927c-3.08,1.674-6.934,0.534-8.608-2.545l-17.764-32.682c-1.674-3.08-0.534-6.934,2.545-8.608l36.661-19.927
			c3.08-1.674,6.934-0.534,8.608,2.545l17.764,32.682C154.309,158.105,153.17,161.959,150.09,163.633z" />

			<rect id="XMLID_215_" x="98.415" y="126.684"
				transform="matrix(0.8786 -0.4776 0.4776 0.8786 -48.5439 66.9831)" style="fill:#00BCA2;" width="18.124"
				height="4.577" />
			<path id="XMLID_214_" style="fill:#3C808E;"
				d="M140.966,143.432c0.688,1.266,0.22,2.85-1.046,3.538
			c-1.266,0.688-2.85,0.22-3.538-1.046c-0.688-1.266-0.22-2.85,1.046-3.538C138.694,141.698,140.278,142.166,140.966,143.432z" />
			<path id="XMLID_213_" style="fill:#245469;" d="M111.052,119.424L91.98,129.791c-2.388,1.298-5.403,0.406-6.701-1.982
			l-0.439-0.807c-1.298-2.388-0.406-5.403,1.982-6.701l19.073-10.367c2.388-1.298,5.403-0.406,6.701,1.982l0.439,0.807
			C114.332,115.111,113.44,118.126,111.052,119.424z" />

			<linearGradient id="XMLID_00000080175858502853860860000002056544353658195646_"
				gradientUnits="userSpaceOnUse" x1="84.1945" y1="137.5594" x2="112.9946" y2="198.7595">
				<stop offset="0" style="stop-color:#2BF3B7" />
				<stop offset="0.5" style="stop-color:#00EEAE" />
				<stop offset="1" style="stop-color:#00DAAA" />
			</linearGradient>
			<path id="XMLID_212_" style="fill:url(#XMLID_00000080175858502853860860000002056544353658195646_);" d="M112.904,183.845
			l-8.655,4.704c-0.764,0.415-1.719,0.132-2.134-0.631L81.368,149.75c-0.415-0.764-0.132-1.719,0.631-2.134l8.655-4.704
			c0.764-0.415,1.719-0.132,2.134,0.631l20.746,38.168C113.95,182.475,113.667,183.43,112.904,183.845z" />

			<ellipse id="XMLID_211_" transform="matrix(0.433 -0.9014 0.9014 0.433 -70.9423 193.0964)"
				style="fill:#3C808E;" cx="118.014" cy="152.938" rx="18.409" ry="18.409" />
			<path id="XMLID_210_" style="fill:#3C808E;"
				d="M90.472,145.607c0.313,0.575-0.82,1.795-2.53,2.724
			c-1.71,0.929-3.35,1.217-3.662,0.642c-0.313-0.575,0.82-1.794,2.531-2.724C88.52,145.319,90.16,145.032,90.472,145.607z" />

			<ellipse id="XMLID_209_" transform="matrix(0.9266 -0.3761 0.3761 0.9266 -50.1543 53.8943)"
				style="fill:#2F6B7C;" cx="112.971" cy="155.416" rx="16.355" ry="16.355" />

			<ellipse id="XMLID_208_" transform="matrix(0.2836 -0.9589 0.9589 0.2836 -72.8233 217.503)"
				style="fill:#245469;" cx="109.156" cy="157.49" rx="16.355" ry="16.355" />
			<path id="XMLID_207_" style="fill:#FFFFFF;" d="M118.798,152.512c3.306,6.082,1.055,13.692-5.027,16.998
			c-6.082,3.306-13.692,1.055-16.998-5.027c-3.306-6.082-1.055-13.692,5.027-16.998C107.882,144.179,115.492,146.43,118.798,152.512
			z" />
		</g>
		<g id="XMLID_181_">

			<linearGradient id="XMLID_00000030450396923507948500000010455625415205033906_"
				gradientUnits="userSpaceOnUse" x1="366.3207" y1="71.3442" x2="440.1727" y2="349.7098">
				<stop offset="0" style="stop-color:#142564" />
				<stop offset="0.5" style="stop-color:#482D91" />
				<stop offset="1" style="stop-color:#8F009E" />
			</linearGradient>
			<path id="XMLID_191_" style="fill:url(#XMLID_00000030450396923507948500000010455625415205033906_);" d="M589.176,309.693
			H199.949c-1.988,0-3.6-1.612-3.6-3.6V49.494c0-1.988,1.612-3.6,3.6-3.6h389.227c1.988,0,3.6,1.612,3.6,3.6v256.599
			C592.776,308.081,591.164,309.693,589.176,309.693z" />

			<linearGradient id="XMLID_00000173863419744562083960000006583514792667080359_"
				gradientUnits="userSpaceOnUse" x1="196.349" y1="181.7217" x2="580.9701" y2="181.7217">
				<stop offset="0" style="stop-color:#142564" />
				<stop offset="0.2721" style="stop-color:#482D91" />
				<stop offset="1" style="stop-color:#8F009E" />
			</linearGradient>
			<path id="XMLID_190_" style="fill:url(#XMLID_00000173863419744562083960000006583514792667080359_);" d="M577.37,309.693H199.949
			c-1.988,0-3.6-1.612-3.6-3.6V57.35c0-1.988,1.612-3.6,3.6-3.6H577.37c1.988,0,3.6,1.612,3.6,3.6v248.743
			C580.97,308.081,579.358,309.693,577.37,309.693z" />
			<rect id="XMLID_189_" x="213.811" y="67.49" style="fill:#142564;" width="352.805" height="224.174" />
			<rect id="XMLID_188_" x="245.487" y="77.789" style="fill:#FFFFFF;" width="286.345" height="7.542" />
			<path id="XMLID_187_" style="fill:#FFFFFF;" d="M549.068,81.56c0,3.384-2.743,6.128-6.128,6.128c-3.384,0-6.128-2.743-6.128-6.128
			c0-3.384,2.743-6.128,6.128-6.128C546.324,75.432,549.068,78.176,549.068,81.56z" />
			<path id="XMLID_186_" style="fill:#E0C621;"
				d="M559.56,305.451h-23.498c-1.056,0-1.92-0.864-1.92-1.92v-3.702
			c0-1.056,0.864-1.92,1.92-1.92h23.498c1.056,0,1.92,0.864,1.92,1.92v3.702C561.48,304.587,560.616,305.451,559.56,305.451z" />
			<path id="XMLID_185_" style="opacity:0.49;fill:#FFFFFF;" d="M452.563,191.049l-112.209,58.206
			c-2.558,1.327-5.617-0.51-5.647-3.392l-1.198-114.042c-0.03-2.882,2.989-4.783,5.574-3.51l113.407,55.836
			C455.336,185.549,455.378,189.589,452.563,191.049z" />
			<path id="XMLID_184_" style="fill:#FFFFFF;" d="M474.481,171.96l-112.209,58.206c-2.558,1.327-5.617-0.51-5.647-3.392
			l-1.198-114.042c-0.03-2.882,2.989-4.783,5.574-3.51l113.407,55.836C477.253,166.459,477.296,170.5,474.481,171.96z" />

			<radialGradient id="XMLID_00000116956834006030267340000002168318156639813005_" cx="390.2134" cy="179.5771"
				r="147.7858" gradientUnits="userSpaceOnUse">
				<stop offset="0.5744" style="stop-color:#140F10" />
				<stop offset="0.7977" style="stop-color:#140F10" />
				<stop offset="1" style="stop-color:#140F10" />
			</radialGradient>
			<path id="XMLID_182_"
				style="opacity:0.19;fill:url(#XMLID_00000116956834006030267340000002168318156639813005_);" d="
			M459.702,243.498c-82.168,28.24-183.673,4.283-148.321-87.203c32.457-83.996-76.917-88.612-95.047-88.805h-2.522v224.174h352.805
			V99.044C540.373,124.882,523.597,221.538,459.702,243.498z" />
		</g>

		<linearGradient id="XMLID_00000114778937987567863100000018307496519309316278_" gradientUnits="userSpaceOnUse"
			x1="-681.988" y1="4041.4209" x2="-642.5489" y2="4041.4209"
			gradientTransform="matrix(0.7726 -0.6349 0.6349 0.7726 -1407.7388 -3193.5293)">
			<stop offset="0.0256" style="stop-color:#ED1C8E" />
			<stop offset="1" style="stop-color:#C1277B" />
		</linearGradient>
		<path id="XMLID_1569_" style="fill:url(#XMLID_00000114778937987567863100000018307496519309316278_);" d="M636.892,337.614
		c-10.14-6.836-32.512,27.462,21.711,26.638c0.111,0.13,0.181,0.214,0.181,0.214c0.016-0.073,0.029-0.142,0.044-0.215
		c0.025,0,0.047,0,0.072,0c0,0-0.021-0.026-0.057-0.071C670.039,311.711,633.098,326.375,636.892,337.614z" />
		<g id="XMLID_1563_">
			<path id="XMLID_1566_" style="fill:#FFFFFF;"
				d="M621.943,227.186c3.17,1.201,0.224-6.568-2.185-11.475
			c-2.214-3.386-15.983-6.301-15.075-5.346c0.51,0.536-0.643-6.653,7.824-4.391c8.468,2.262,11.781,2.736,11.781,2.736
			s4.061-10.943,4.394-11.335c0.333-0.392,6.264-2.733,8.169,1.99c0,0,4.245-2.588,6.606,1.955c0,0,4.211-1.923,6.957,2.077
			c0,0,3.665-2.62,4.463,1.888c0.798,4.507-5.181,20.03-8.461,22.106c-3.28,2.076-4.659,7.182-4.659,7.182L621.943,227.186z" />

			<linearGradient id="XMLID_00000079451855881265459640000005113728992713629357_"
				gradientUnits="userSpaceOnUse" x1="-2781.2927" y1="5066.5898" x2="-2773.2986" y2="5066.5898"
				gradientTransform="matrix(0.3279 -0.9447 0.9447 0.3279 -3246.4814 -4052.446)">
				<stop offset="0" style="stop-color:#525DA1" />
				<stop offset="1" style="stop-color:#2A3F6F" />
			</linearGradient>
			<polygon id="XMLID_1564_" style="fill:url(#XMLID_00000079451855881265459640000005113728992713629357_);"
				points="
			646.55,234.375 643.929,241.926 611.951,230.825 614.573,223.274 		" />
		</g>
		<g id="XMLID_1554_">

			<linearGradient id="XMLID_00000167386745969859990110000004159542214717208212_"
				gradientUnits="userSpaceOnUse" x1="-3854.0815" y1="4740.561" x2="-3966.3335" y2="4831.5762"
				gradientTransform="matrix(0.4693 -0.883 0.883 0.4693 -2226.9604 -5409.8999)">
				<stop offset="0.0256" style="stop-color:#ED1C8E" />
				<stop offset="1" style="stop-color:#C1277B" />
			</linearGradient>
			<path id="XMLID_1559_" style="fill:url(#XMLID_00000167386745969859990110000004159542214717208212_);" d="M205.49,280.864
			l-26.422,49.433c-2.83,5.294-10.128,6.939-16.302,3.675l-33.282-17.599c-6.173-3.265-8.884-10.202-6.055-15.496l26.422-49.433
			c2.83-5.294,10.128-6.939,16.302-3.675l33.282,17.599C205.609,268.632,208.319,275.57,205.49,280.864z" />
			<polygon id="XMLID_1558_" style="fill:#FFFFFF;"
				points="150.704,291.269 171.82,302.434 167.657,284.888 		" />
			<polygon id="XMLID_1557_" style="fill:#FFFFFF;" points="155.318,283.86 176.433,295.025 172.27,277.479 		" />
		</g>
		<path id="XMLID_178_" style="fill:#FFFFFF;" d="M127.474,214.431c-0.746,4.202-3.092,4.737-3.092,4.737
		c1.973,0.495,3.092,4.777,3.092,4.777s1.119-4.281,3.092-4.777C130.565,219.168,128.219,218.633,127.474,214.431z" />
		<path id="XMLID_177_" style="fill:#FFFFFF;" d="M626.702,323.578c-0.746,4.202-3.092,4.737-3.092,4.737
		c1.973,0.495,3.092,4.777,3.092,4.777s1.119-4.281,3.092-4.777C629.794,328.315,627.448,327.78,626.702,323.578z" />
		<path id="XMLID_176_" style="fill:#FFFFFF;" d="M612.225,260.42c-0.746,4.202-3.092,4.737-3.092,4.737
		c1.973,0.495,3.092,4.777,3.092,4.777s1.119-4.281,3.092-4.777C615.317,265.157,612.971,264.622,612.225,260.42z" />
		<path id="XMLID_175_" style="opacity:0.49;fill:#FFFFFF;" d="M134.164,234.37c-1.123,6.328-4.656,7.134-4.656,7.134
		c2.971,0.746,4.656,7.193,4.656,7.193s1.685-6.447,4.656-7.193C138.819,241.503,135.287,240.697,134.164,234.37z" />
		<path id="XMLID_174_" style="opacity:0.49;fill:#FFFFFF;" d="M651.901,306.289c-1.123,6.328-4.656,7.134-4.656,7.134
		c2.971,0.746,4.656,7.193,4.656,7.193s1.685-6.447,4.656-7.193C656.557,313.423,653.024,312.617,651.901,306.289z" />
		<path id="XMLID_173_" style="fill:#FFFFFF;" d="M177.41,114.773c-0.746,4.202-3.092,4.737-3.092,4.737
		c1.973,0.496,3.092,4.777,3.092,4.777s1.119-4.281,3.092-4.777C180.502,119.511,178.156,118.975,177.41,114.773z" />
		<path id="XMLID_172_" style="opacity:0.49;fill:#FFFFFF;" d="M184.1,134.713c-1.123,6.327-4.656,7.133-4.656,7.133
		c2.971,0.746,4.656,7.193,4.656,7.193s1.685-6.447,4.656-7.193C188.756,141.846,185.223,141.04,184.1,134.713z" />
		<g id="XMLID_99_">
			<defs>
				<path id="XMLID_100_" d="M517.014,102.703c-23.482,5.561-42.949,23.142-66.342,29.088c-39.082,9.933-77.593-14.063-114.969-29.49
				c-36.313-14.988-76.457-22.295-114.841-14.589s-74.645,31.805-92.344,67.835c-10.695,21.773-14.261,46.644-14.274,71.062
				c-0.011,19.79,2.344,40.043,10.93,57.734c8.586,17.69,24.223,32.54,43.083,35.979c15.224,2.777,30.804-1.923,46.246-1.18
				c21.348,1.027,41.924,13.17,53.628,31.648c8.216,12.972,12.034,28.326,18.391,42.368c10.6,23.415,28.909,43.433,51.884,53.661
				c22.975,10.228,50.556,9.978,72.414-2.595c38.355-22.062,45.653-65.962,87.572-79.427c26.044-8.366,67.426,5.611,94.386,9.877
				c76.546,12.113,83.695-85.71,71.043-146.149C649.766,161.398,589.238,85.651,517.014,102.703z" />
			</defs>
			<clipPath id="XMLID_00000075851663171082219730000004378783761463711135_">
				<use xlink:href="#XMLID_100_" style="overflow:visible;" />
			</clipPath>
			<g id="XMLID_101_" style="clip-path:url(#XMLID_00000075851663171082219730000004378783761463711135_);">
				<path id="XMLID_171_" style="fill:#FED4EA;" d="M503.43,242.848c0,0-1.026-13.712,1.134-15.336
				c2.16-1.625,2.778,7.408,2.778,7.408s4.001-14.372,7.895-15.644c3.894-1.273,8.98,17.827-1.828,27.387
				C502.602,256.22,500.328,244.918,503.43,242.848z" />
				<path id="XMLID_170_" style="fill:#FED4EA;" d="M503.43,242.848l-47.822,36.016c0,0-7.78-1.563-13.025,1.078
				c-5.245,2.641-8.689,16.529-4.41,20.468c4.28,3.939,8.801,4.35,8.801,4.35s7.187-0.068,19.876-11.444
				c12.69-11.376,42.524-43.792,42.524-43.792L503.43,242.848z" />
				<path id="XMLID_169_" style="opacity:0.72;fill:#231F20;" d="M506.479,246.27l-15.15,14.132l4.496,3.631
				c7.655-8.106,13.55-14.51,13.55-14.51L506.479,246.27z" />

				<linearGradient id="XMLID_00000103225104001179663070000009721562223570325901_"
					gradientUnits="userSpaceOnUse" x1="484.9075" y1="253.2257" x2="417.9476" y2="270.5056">
					<stop offset="0.0256" style="stop-color:#ED1C8E" />
					<stop offset="1" style="stop-color:#C1277B" />
				</linearGradient>
				<path id="XMLID_168_" style="fill:url(#XMLID_00000103225104001179663070000009721562223570325901_);" d="M394.956,229.942
				l57.595,48.431l43.15-32.371l8.917,11.724c0,0-41.948,54.213-63.105,52.364c-21.157-1.849-68.764-48.905-68.764-48.905
				L394.956,229.942z" />

				<radialGradient id="XMLID_00000034057110919553448760000017843523324692579241_" cx="438.6831"
					cy="279.1038" r="51.5288" gradientUnits="userSpaceOnUse">
					<stop offset="0.5744" style="stop-color:#151112" />
					<stop offset="0.7977" style="stop-color:#151112" />
					<stop offset="1" style="stop-color:#151112" />
				</radialGradient>
				<path id="XMLID_167_"
					style="opacity:0.5;fill:url(#XMLID_00000034057110919553448760000017843523324692579241_);" d="
				M449.011,295.203c-18.695-1.634-58.036-38.56-66.94-47.133l-9.322,13.116c0,0,47.607,47.057,68.764,48.905
				c21.157,1.849,63.105-52.364,63.105-52.364l-2.305-3.031C488.611,270.537,463.761,296.492,449.011,295.203z" />
				<g id="XMLID_135_">
					<g id="XMLID_155_">
						<rect id="XMLID_166_" x="422.749" y="273.128" style="fill:#FB8A3B;" width="131.08"
							height="81.854" />

						<radialGradient id="XMLID_00000179616446706533684660000003665996636964141990_" cx="-1709.1323"
							cy="319.5548" r="52.6811" gradientTransform="matrix(1 0 0 1 2197.4214 0)"
							gradientUnits="userSpaceOnUse">
							<stop offset="0.5744" style="stop-color:#151112" />
							<stop offset="0.7977" style="stop-color:#151112" />
							<stop offset="1" style="stop-color:#151112" />
						</radialGradient>

						<polygon id="XMLID_165_"
							style="opacity:0.35;fill:url(#XMLID_00000179616446706533684660000003665996636964141990_);"
							points="
						422.749,284.128 422.749,289.462 547.161,289.462 547.161,354.982 553.829,354.982 553.829,284.128 					" />

						<linearGradient id="XMLID_00000015357263138333553390000010707292554763408770_"
							gradientUnits="userSpaceOnUse" x1="479.4274" y1="314.0551" x2="495.5712" y2="314.0551">
							<stop offset="0" style="stop-color:#2E5592" />
							<stop offset="1" style="stop-color:#142564" />
						</linearGradient>

						<rect id="XMLID_164_" x="479.427" y="273.128"
							style="fill:url(#XMLID_00000015357263138333553390000010707292554763408770_);" width="16.144"
							height="81.854" />
						<g id="XMLID_160_">
							<polygon id="XMLID_163_" style="fill:#FFFFFF;" points="449.07,331.106 455.863,319.907 448.252,319.743 447.706,321.028 
							450.65,321.729 447.706,324.801 449.421,325.502 445.648,330.669 445.648,338.959 440.516,341.032 445.648,341.032 
							449.07,341.032 454.861,341.032 449.07,338.898 						" />
							<polygon id="XMLID_161_" style="fill:#FFFFFF;" points="446.351,326.204 444.947,325.502 448.281,322.519 445.736,321.817 
							447.336,319.723 439.548,319.555 444.739,329.012 						" />
						</g>
						<g id="XMLID_156_">
							<path id="XMLID_157_" style="fill:#FFFFFF;" d="M459.365,343.782h-24.011v-28.138h24.011V343.782z M436.816,342.32h21.086
							v-25.213h-21.086V342.32z" />
						</g>
					</g>

					<text id="XMLID_154_" transform="matrix(1 0 0 1 482.2357 335.5073)"
						style="font-family:'Poppins-SemiBold'; font-size:70.1901px;"> </text>
					<g id="XMLID_136_">
						<path id="XMLID_152_" style="fill:#FFFFFF;" d="M483.171,337.547l0.019-5.281l1.603,0.006l-0.012,3.32l1.974,0.007l0.011-3.102
						l1.59,0.006l-0.011,3.102l3.474,0.012l-0.007,1.961L483.171,337.547z" />
						<path id="XMLID_149_" style="fill:#FFFFFF;" d="M483.31,330.789c-0.1-0.629-0.174-1.565-0.17-2.603
						c0.005-1.282,0.2-2.179,0.689-2.792c0.412-0.511,1.015-0.791,1.81-0.788c1.102,0.004,1.855,0.788,2.122,1.533l0.039,0
						c0.245-0.601,0.824-0.933,1.62-1.148c0.975-0.265,2.104-0.531,2.438-0.696l-0.007,1.999c-0.244,0.141-0.95,0.343-2.014,0.596
						c-1.078,0.227-1.374,0.597-1.39,1.392l-0.002,0.59l3.397,0.012l-0.007,1.936L483.31,330.789z M487.035,328.866l0.003-0.769
						c0.003-0.974-0.482-1.553-1.239-1.555c-0.794-0.003-1.194,0.534-1.21,1.431c-0.002,0.474,0.036,0.744,0.061,0.885
						L487.035,328.866z" />
						<path id="XMLID_146_" style="fill:#FFFFFF;" d="M489.651,321.078l2.216,0.623l-0.007,2.025l-8.631-2.671l0.009-2.564
						l8.649-2.649l-0.007,2.103l-2.22,0.659L489.651,321.078z M488.197,318.88l-1.835,0.532c-0.513,0.152-1.154,0.304-1.668,0.43
						l0,0.026c0.513,0.13,1.166,0.261,1.665,0.404l1.831,0.519L488.197,318.88z" />
						<path id="XMLID_143_" style="fill:#FFFFFF;" d="M491.518,307.787c0.203,0.603,0.481,1.745,0.477,2.886
						c-0.005,1.577-0.407,2.716-1.179,3.508c-0.746,0.792-1.876,1.224-3.145,1.206c-2.871-0.023-4.505-2.118-4.495-4.951
						c0.004-1.115,0.225-1.973,0.432-2.395l1.562,0.416c-0.206,0.473-0.375,1.062-0.379,2.011c-0.006,1.628,0.913,2.861,2.784,2.868
						c1.782,0.006,2.837-1.105,2.842-2.707c0.002-0.449-0.048-0.807-0.124-0.962l-1.808-0.006l-0.005,1.333l-1.526-0.005
						l0.011-3.217L491.518,307.787z" />
						<path id="XMLID_141_" style="fill:#FFFFFF;"
							d="M483.288,304.267l8.64,0.03l-0.007,1.961l-8.64-0.031L483.288,304.267z" />
						<path id="XMLID_139_" style="fill:#FFFFFF;" d="M483.294,302.573l0.007-1.961l6.999,0.025l0.012-3.435l1.641,0.006
						l-0.019,5.397L483.294,302.573z" />
						<path id="XMLID_137_" style="fill:#FFFFFF;" d="M488.322,290.897l-0.011,3.179l2.051,0.007l0.013-3.551l1.602,0.006
						l-0.02,5.512l-8.64-0.031l0.019-5.332l1.603,0.006l-0.012,3.371l1.794,0.006l0.011-3.179L488.322,290.897z" />
					</g>
				</g>

				<linearGradient id="XMLID_00000129921965047511647790000012725218234160568233_"
					gradientUnits="userSpaceOnUse" x1="297.2568" y1="426.2384" x2="341.8968" y2="415.4384">
					<stop offset="0" style="stop-color:#2E5592" />
					<stop offset="1" style="stop-color:#142564" />
				</linearGradient>
				<path id="XMLID_134_" style="fill:url(#XMLID_00000129921965047511647790000012725218234160568233_);" d="M400.07,371.381
				l22.75,78.899c0,0-32.144,4.761-44.684,3.401l-13.042-31.288l-3.261,34.688c0,0-37.727,6.121-50.65,0c0,0-2.04-68.016,4.761-85.7
				S400.07,371.381,400.07,371.381z" />

				<radialGradient id="XMLID_00000066491537121086674510000006501591036376254629_" cx="374.0082"
					cy="408.7193" r="47.0319" gradientUnits="userSpaceOnUse">
					<stop offset="0.5744" style="stop-color:#151112" />
					<stop offset="0.7977" style="stop-color:#151112" />
					<stop offset="1" style="stop-color:#151112" />
				</radialGradient>
				<path id="XMLID_133_"
					style="opacity:0.17;fill:url(#XMLID_00000066491537121086674510000006501591036376254629_);" d="
				M422.82,450.279l-22.75-78.899c0,0-52.657-12.031-74.874-6.291c3.307,11.849,9.695,27.094,20.996,28.736
				c18.724,2.72,32.125-2.721,44.809,14.963c8.665,12.081,0.296,33.036-5.879,45.111C399.798,453.682,422.82,450.279,422.82,450.279
				z" />

				<linearGradient id="XMLID_00000132068117747733800920000011671277471600588202_"
					gradientUnits="userSpaceOnUse" x1="307.3916" y1="305.1923" x2="408.9487" y2="305.1923">
					<stop offset="0.0256" style="stop-color:#ED1C8E" />
					<stop offset="1" style="stop-color:#C1277B" />
				</linearGradient>
				<path id="XMLID_132_" style="fill:url(#XMLID_00000132068117747733800920000011671277471600588202_);" d="M385.806,228.032
				c0,0,15.866-0.851,17.99,14.483c2.123,15.334-1.038,95.317,5.149,132.691c0.699,13.518-86.268,17.246-96.401-2.466
				c0,0-13.296-49.344,2.833-116.857c0,0,0.99-32.783,39.672-31.923L385.806,228.032z" />

				<radialGradient id="XMLID_00000054982506720462657230000002453157988827933367_" cx="383.5594"
					cy="304.416" r="59.165" gradientUnits="userSpaceOnUse">
					<stop offset="0.5744" style="stop-color:#151112" />
					<stop offset="0.7977" style="stop-color:#151112" />
					<stop offset="1" style="stop-color:#151112" />
				</radialGradient>
				<path id="XMLID_131_"
					style="opacity:0.5;fill:url(#XMLID_00000054982506720462657230000002453157988827933367_);" d="
				M408.944,375.207c-6.187-37.374-3.025-117.357-5.149-132.691c-2.123-15.334-17.99-14.483-17.99-14.483l-25.26-3.343
				c11.653,11.656,26.232,29.651,32.767,51.628c11.742,39.489-15.702,88.286-35.142,89.889c0,0,6.158,7.069,22.946,0
				c15.609-6.572,20.308,7.499,10.385,17.936C401.99,382.201,409.147,379.117,408.944,375.207z" />
				<path id="XMLID_54_" style="fill:#FED4EA;" d="M348.57,245.881c-1.838-0.852-7.677-17.63-23.121-6.482
				c-15.443,11.148,18.305,83.3,36.383,100.171c18.078,16.872,35.039,2.453,27.207-8.103
				C381.207,320.911,348.57,245.881,348.57,245.881z" />
				<g id="XMLID_125_">
					<path id="XMLID_130_" style="fill:#FED4EA;" d="M447.19,352.24l-56.948-18.466c0,0-3.188-7.267-8.362-10.044
					c-5.174-2.777-18.522,2.379-19.288,8.144c-0.767,5.765,1.494,9.703,1.494,9.703s4.183,5.844,20.784,9.7
					c16.601,3.855,60.272,9.663,60.272,9.663L447.19,352.24z" />
					<g id="XMLID_128_" style="opacity:0.64;">
						<path id="XMLID_129_" style="fill:#231F20;" d="M446.181,356.523l-62.395-13.096l-16.404-5.894c0,0-0.209-6.196-0.142-11.227
						c-2.51,1.564-4.376,3.523-4.648,5.568c-0.767,5.765,1.493,9.703,1.493,9.703s4.183,5.845,20.784,9.7
						c16.601,3.855,60.272,9.664,60.272,9.664L446.181,356.523z" />
					</g>
					<path id="XMLID_127_" style="fill:#FED4EA;" d="M447.19,352.24c0,0,10.636-8.715,13.206-7.879
					c2.57,0.835-4.469,6.528-4.469,6.528s14.063-4.978,17.341-2.521c3.278,2.457-9.438,17.589-23.47,14.231
					C435.767,359.242,443.714,350.889,447.19,352.24z" />
					<path id="XMLID_126_" style="opacity:0.72;fill:#231F20;" d="M473.27,348.369c-0.035-0.026-0.088-0.04-0.125-0.064
					c-0.886,5.55-21.638,8.881-25.054,8.662c-3.195-0.206-5.726-1.149-6.158-1.319c-0.672,2.34,0.845,5.272,7.868,6.953
					C463.832,365.958,476.547,350.826,473.27,348.369z" />
				</g>

				<linearGradient id="XMLID_00000057136137141341653720000000536114693551288760_"
					gradientUnits="userSpaceOnUse" x1="388.5561" y1="290.2539" x2="348.2361" y2="334.1738">
					<stop offset="0.0256" style="stop-color:#ED1C8E" />
					<stop offset="1" style="stop-color:#C1277B" />
				</linearGradient>
				<path id="XMLID_124_" style="fill:url(#XMLID_00000057136137141341653720000000536114693551288760_);" d="M437.558,347.314
				l-2.256,13.627c0,0-56.866-3.917-71.93-16.636c-15.064-12.719-43.963-71.402-43.668-91.16
				c0.295-19.758,16.593-23.317,24.221-17.556c7.628,5.761,43.015,87.367,43.015,87.367L437.558,347.314z" />

				<radialGradient id="XMLID_00000126322084979918730130000017945538653554619545_" cx="379.8629"
					cy="314.0551" r="52.5685" gradientUnits="userSpaceOnUse">
					<stop offset="0.5744" style="stop-color:#151112" />
					<stop offset="0.7977" style="stop-color:#151112" />
					<stop offset="1" style="stop-color:#151112" />
				</radialGradient>
				<path id="XMLID_123_"
					style="opacity:0.5;fill:url(#XMLID_00000126322084979918730130000017945538653554619545_);" d="
				M433.392,345.309l-1.073,6.484c0,0-56.866-3.917-71.93-16.636c-10.955-9.25-29.181-42.769-38.22-67.987
				c7.244,25.44,28.858,66.711,41.203,77.135c15.064,12.718,71.93,16.636,71.93,16.636l2.256-13.627L433.392,345.309z" />
				<path id="XMLID_59_" style="fill:#FAD2E7;" d="M361.833,198.179c0,0,4.523,19.45-6.785,25.782
				c-1.86,14.053,28.898,18.124,30.758,4.071c0,0-5.428-1.809-6.785-6.332c-1.357-4.523-2.262-17.641-2.262-17.641L361.833,198.179z
				" />
				<path id="XMLID_58_" style="opacity:0.56;fill:#231F20;"
					d="M361.935,213.95c1.795-7.509-0.102-15.771-0.102-15.771l14.927,5.88
				c0,0,0.905,13.117,2.262,17.641c0.041,0.137,0.117,0.248,0.165,0.38C371.882,222.142,365.965,217.884,361.935,213.95z" />

				<linearGradient id="XMLID_00000003091684751869842230000011819416906941918653_"
					gradientUnits="userSpaceOnUse" x1="346.1916" y1="170.9656" x2="422.8204" y2="170.9656">
					<stop offset="0" style="stop-color:#2E5592" />
					<stop offset="1" style="stop-color:#142564" />
				</linearGradient>
				<path id="XMLID_122_" style="fill:url(#XMLID_00000003091684751869842230000011819416906941918653_);" d="M422.115,160.353
				c2.839-10.213-3.14-20.794-13.353-23.633c-9.936-2.761-20.16,2.857-23.326,12.565c-9.702-0.142-25.674,1.118-33.998,10.059
				c-12.454,13.377-0.209,41.33,10.568,46.081c10.777,4.751,19.779-26.716,19.779-26.716l19.695-2.251l-0.523-2.327
				C410.351,175.46,419.505,169.741,422.115,160.353z" />

				<radialGradient id="XMLID_00000108998820488689910390000011794500773634509985_" cx="470.4394"
					cy="-740.7422" r="35.9591"
					gradientTransform="matrix(0.9635 0.2678 -0.2678 0.9635 -265.924 758.9193)"
					gradientUnits="userSpaceOnUse">
					<stop offset="0.5744" style="stop-color:#151112" />
					<stop offset="0.7977" style="stop-color:#151112" />
					<stop offset="1" style="stop-color:#151112" />
				</radialGradient>
				<path id="XMLID_121_"
					style="opacity:0.35;fill:url(#XMLID_00000108998820488689910390000011794500773634509985_);"
					d="
				M422.115,160.353c2.839-10.213-3.14-20.794-13.353-23.633c-1.214-0.337-2.432-0.541-3.64-0.636
				c2.688,4.354,4.518,9.68,3.046,15.363c-3.648,14.076-48.728,12.448-48.728,12.448s7.108,9.386,3.764,11.081
				c-3.344,1.695-6.927-3.925-11.523,1.598c-2.547,3.06-2.81,8.199-2.555,12.215c3.078,7.902,8.119,14.539,12.882,16.638
				c10.777,4.751,19.779-26.716,19.779-26.716l19.695-2.251l-0.523-2.327C410.351,175.46,419.505,169.741,422.115,160.353z" />
				<path id="XMLID_57_" style="fill:#FAD2E7;" d="M406.507,167.545c0,0,12.438,43.236-2.026,51.764
				c-14.464,8.528-42.475-13.883-42.475-13.883l3.2-7.432c0,0-7.019,4.025-8.49-5.858c-1.471-9.883,1.406-15.031,6.129-11.677
				c4.722,3.355,5.406,7.393,5.406,7.393s9.651-5.535,2.232-16.438C370.483,171.415,401.152,176.912,406.507,167.545z" />
				<path id="XMLID_56_" style="opacity:0.56;fill:#231F20;"
					d="M377.298,195.065c0.077,1.355,2.764,2.303,6.001,2.119
				c3.237-0.185,5.798-1.433,5.721-2.788c-0.077-1.355-2.764-2.303-6.001-2.119C379.782,192.462,377.221,193.71,377.298,195.065z" />
				<path id="XMLID_55_" style="opacity:0.56;fill:#231F20;"
					d="M400.072,191.576c0.077,1.355,2.215,2.335,4.774,2.189
				c2.56-0.146,4.572-1.363,4.494-2.718c-0.077-1.355-2.215-2.335-4.774-2.189C402.007,189.004,399.995,190.221,400.072,191.576z" />
				<path id="XMLID_120_" style="fill:#F2F2F2;" d="M359.331,220.043l16.315,16.712l-8.738,11.942c0,0-15.308-11.721-11.86-24.735
				L359.331,220.043z" />
				<path id="XMLID_119_" style="fill:#F2F2F2;" d="M382.503,226.258l-6.857,10.497l10.288,8.243c0,0,1.548-12.889-0.128-16.966
				L382.503,226.258z" />

				<rect id="XMLID_118_" x="374.437" y="235.63"
					transform="matrix(0.9995 -0.032 0.032 0.9995 -7.654 12.1347)" style="fill:#F2F2F2;" width="2.751"
					height="19.797" />
				<circle id="XMLID_117_" style="fill:#F2F2F2;" cx="379.363" cy="244.633" r="1.227" />
				<circle id="XMLID_116_" style="fill:#F2F2F2;" cx="379.363" cy="252.65" r="1.227" />
				<g id="XMLID_102_">
					<path id="XMLID_115_" style="fill:#256F77;"
						d="M502.305,200.148c0,3.659,7.41,3.659,7.41,0l0-7.41h-7.41L502.305,200.148z" />
					<polygon id="XMLID_114_" style="fill:#2E7B89;" points="504.991,237.051 513.451,237.051 511.95,197.815 506.493,197.815 				
					" />
					<path id="XMLID_113_" style="fill:#30848E;"
						d="M508.77,200.148c0,3.659,7.41,3.659,7.41,0l0-7.41h-7.41L508.77,200.148z" />
					<g id="XMLID_106_">

						<rect id="XMLID_112_" x="495.783" y="175.565"
							transform="matrix(-1 -1.224647e-16 1.224647e-16 -1 1021.3231 373.3799)"
							style="fill:#4397AA;" width="29.757" height="22.249" />
						<rect id="XMLID_111_" x="516.18" y="175.565" style="opacity:0.25;fill:#231F20;" width="9.36"
							height="22.249" />
						<ellipse id="XMLID_110_" style="fill:#5CBACC;" cx="506.01" cy="186.69" rx="5.94" ry="7.02" />
						<ellipse id="XMLID_109_" style="fill:#6ED1E0;" cx="503.49" cy="186.69" rx="5.94" ry="7.02" />
						<ellipse id="XMLID_108_" style="fill:#FFFFFF;" cx="503.07" cy="186.69" rx="4.68" ry="5.531" />
						<path id="XMLID_107_" style="fill:#FFFFFF;"
							d="M510.03,179.67h3.031c0.874,0,1.589-0.715,1.589-1.589l0,0
						c0-0.874-0.715-1.589-1.589-1.589h-3.031c-0.874,0-1.589,0.715-1.589,1.589l0,0C508.44,178.955,509.155,179.67,510.03,179.67z" />
					</g>
					<path id="XMLID_105_" style="fill:#343F56;" d="M509.243,250.411L509.243,250.411c-2.656,0-4.829-2.173-4.829-4.829V223.02
					c0-2.656,2.173-4.829,4.829-4.829l0,0c2.656,0,4.829,2.173,4.829,4.829v22.561C514.072,248.238,511.899,250.411,509.243,250.411
					z" />
					<path id="XMLID_104_" style="opacity:0.25;fill:#1A1A1A;" d="M507.646,229.32c0-2.656,2.173-4.829,4.829-4.829l0,0
					c0.562,0,1.094,0.116,1.597,0.294v-1.765c0-2.656-2.173-4.829-4.829-4.829c-2.656,0-4.829,2.173-4.829,4.829v22.561
					c0,2.094,1.359,3.87,3.232,4.535V229.32z" />
					<path id="XMLID_103_" style="fill:#343F56;"
						d="M513.551,222.691h-8.617c-1.446,0-2.629-1.183-2.629-2.629l0,0
					c0-1.446,1.183-2.629,2.629-2.629h8.617c1.446,0,2.629,1.183,2.629,2.629l0,0C516.18,221.508,514.997,222.691,513.551,222.691z" />
				</g>
			</g>
		</g>

		<linearGradient id="XMLID_00000056399533064153354150000017319066306033929658_" gradientUnits="userSpaceOnUse"
			x1="514.4891" y1="477.6407" x2="523.8489" y2="332.9209">
			<stop offset="0.3954" style="stop-color:#142564" />
			<stop offset="0.6695" style="stop-color:#482D91" />
			<stop offset="1" style="stop-color:#8F009E" />
		</linearGradient>
		<path id="XMLID_98_" style="fill:url(#XMLID_00000056399533064153354150000017319066306033929658_);" d="M511.587,370.918
		c-1.064,0.186-27.72,1.877-47.88,32.439c-20.16,30.561-24.296,30.561-18.896,34.161c9.906,6.604,37.222-30.851,65.336-26.28
		c44.28,7.2,82.08,2.52,84.24-15.48S542.547,365.518,511.587,370.918z" />
		<path id="XMLID_97_" style="fill:#FFFFFF;" d="M518.548,382.021c-0.746,4.202-3.092,4.737-3.092,4.737
		c1.973,0.495,3.092,4.777,3.092,4.777s1.119-4.281,3.092-4.777C521.64,386.758,519.294,386.223,518.548,382.021z" />
		<path id="XMLID_96_" style="fill:#FFFFFF;" d="M523.18,394.453c-0.371,2.092-1.539,2.359-1.539,2.359
		c0.982,0.247,1.539,2.379,1.539,2.379s0.557-2.132,1.539-2.379C524.719,396.811,523.551,396.545,523.18,394.453z" />
		<path id="XMLID_95_" style="fill:#FFFFFF;" d="M473.529,399.19c-0.746,4.202-3.092,4.737-3.092,4.737
		c1.973,0.495,3.092,4.777,3.092,4.777s1.119-4.281,3.092-4.777C476.621,403.927,474.275,403.392,473.529,399.19z" />
		<path id="XMLID_94_" style="fill:#FFFFFF;" d="M478.16,411.622c-0.371,2.092-1.539,2.359-1.539,2.359
		c0.982,0.247,1.539,2.379,1.539,2.379s0.557-2.132,1.54-2.379C479.7,413.981,478.532,413.714,478.16,411.622z" />
		<path id="XMLID_93_" style="fill:#FFFFFF;" d="M567.887,382.021c-0.371,2.092-1.539,2.359-1.539,2.359
		c0.982,0.247,1.539,2.379,1.539,2.379s0.557-2.132,1.539-2.379C569.427,384.38,568.259,384.113,567.887,382.021z" />
		<path id="XMLID_92_" style="fill:#FFFFFF;" d="M484.367,399.19c-0.371,2.092-1.539,2.359-1.539,2.359
		c0.982,0.247,1.539,2.378,1.539,2.378s0.557-2.132,1.539-2.378C485.907,401.549,484.739,401.282,484.367,399.19z" />
		<path id="XMLID_91_" style="fill:#FFFFFF;" d="M206.519,337.044c-0.746,4.202-3.092,4.737-3.092,4.737
		c1.973,0.495,3.092,4.777,3.092,4.777s1.119-4.281,3.092-4.777C209.611,341.781,207.264,341.246,206.519,337.044z" />
		<path id="XMLID_90_" style="fill:#FFFFFF;" d="M211.15,349.475c-0.371,2.092-1.539,2.359-1.539,2.359
		c0.982,0.247,1.539,2.379,1.539,2.379s0.557-2.132,1.54-2.379C212.689,351.834,211.521,351.568,211.15,349.475z" />
		<path id="XMLID_86_" style="fill:#FFFFFF;" d="M217.357,337.044c-0.371,2.092-1.539,2.359-1.539,2.359
		c0.982,0.247,1.539,2.379,1.539,2.379s0.557-2.132,1.54-2.379C218.897,339.402,217.729,339.136,217.357,337.044z" />
		<polygon id="XMLID_80_" style="fill:#F2F2F2;"
			points="360.557,265.083 386.307,323.938 427.892,342.662 386.939,322.956 	" />
		<path id="XMLID_79_" style="fill:#F2F2F2;" d="M385.436,149.285c0,0-37.351-0.727-39.24,24.833
		C346.196,174.118,342.805,147.732,385.436,149.285z" />
		<path id="XMLID_78_" style="fill:#F2F2F2;" d="M345.509,385.535c0,0-27.749-4.596-31.203-12.696
		c-3.453-8.1-6.858-44.407-6.858-44.407s-0.094,39.247,6.138,47.407C320.401,384.761,345.509,385.535,345.509,385.535z" />
		<g id="XMLID_710_">

			<linearGradient id="XMLID_00000078042864103227787110000001579209135807891106_"
				gradientUnits="userSpaceOnUse" x1="159.9235" y1="382.815" x2="18.32" y2="553.7156">
				<stop offset="0.2672" style="stop-color:#142564" />
				<stop offset="0.9876" style="stop-color:#482D91" />
			</linearGradient>
			<path id="XMLID_705_" style="fill:url(#XMLID_00000078042864103227787110000001579209135807891106_);" d="M217.357,500H0V389.325
			c1.513-1.034,3.052-2.026,4.624-2.976c28.896-17.437,65.494-18.009,96.147-6.011c30.653,11.989,55.733,35.404,74.599,62.509
			C188.772,462.082,200.694,484.446,217.357,500z" />
			<path id="XMLID_709_" style="fill:#FFFFFF;" d="M54.118,413.991c-3.023,17.029-12.53,19.199-12.53,19.199
			c7.996,2.008,12.53,19.359,12.53,19.359s4.534-17.351,12.53-19.359C66.648,433.189,57.14,431.02,54.118,413.991z" />
			<path id="XMLID_708_" style="opacity:0.49;fill:#FFFFFF;" d="M72.887,464.372c-1.505,8.479-6.239,9.56-6.239,9.56
			c3.981,1,6.239,9.639,6.239,9.639s2.257-8.639,6.239-9.639C79.126,473.931,74.392,472.851,72.887,464.372z" />
			<path id="XMLID_707_" style="opacity:0.49;fill:#FFFFFF;" d="M98.042,413.991c-1.505,8.479-6.239,9.559-6.239,9.559
			c3.981,1,6.239,9.639,6.239,9.639s2.257-8.639,6.239-9.639C104.281,423.55,99.547,422.47,98.042,413.991z" />
		</g>

		<linearGradient id="XMLID_00000004514603669903540130000015219036500004434849_" gradientUnits="userSpaceOnUse"
			x1="-1167.7057" y1="3786.2913" x2="-1121.2877" y2="3786.2913"
			gradientTransform="matrix(-0.965 -0.2622 -0.2622 0.965 60.2268 -3507.4829)">
			<stop offset="0.0256" style="stop-color:#ED1C8E" />
			<stop offset="1" style="stop-color:#C1277B" />
		</linearGradient>
		<path id="XMLID_712_" style="fill:url(#XMLID_00000004514603669903540130000015219036500004434849_);" d="M176.541,429.148
		c7.585-12.232,48.154,13.785-10.447,39.073c-0.056,0.193-0.091,0.317-0.091,0.317c-0.052-0.071-0.1-0.139-0.152-0.21
		c-0.026,0.011-0.051,0.023-0.077,0.034c0,0,0.01-0.038,0.027-0.104C128.458,417.343,175.189,415.253,176.541,429.148z" />
	</g>
</svg>